<?xml version="1.0" standalone="no"?>
<!DOCTYPE svg PUBLIC "-//W3C//DTD SVG 1.1//EN" "http://www.w3.org/Graphics/SVG/1.1/DTD/svg11.dtd" >
<svg>
<metadata>
Created by FontForge 20090622 at Mon Aug 27 21:48:43 2018
 By deploy user
&#60; info@fontfont.de &#62; Copyright Ole Schaefer, 1999. Published by FontShop International for  FontFont Release 25, Fago Condensed is a trademark of FSI Fonts and Software GmbH.
</metadata>
<defs>
<font id="FagoCo-Bold" horiz-adv-x="260" >
  <font-face 
    font-family="FagoCo"
    font-weight="700"
    font-stretch="normal"
    units-per-em="1000"
    panose-1="0 0 0 0 0 0 0 0 0 0"
    ascent="800"
    descent="-200"
    x-height="530"
    cap-height="700"
    bbox="-120 -210 1130 935"
    underline-thickness="50"
    underline-position="-75"
    unicode-range="U+0020-U+FB02"
  />
<missing-glyph 
 />
    <glyph glyph-name=".notdef" 
 />
    <glyph glyph-name=".null" horiz-adv-x="0" 
 />
    <glyph glyph-name="nonmarkingreturn" horiz-adv-x="333" 
 />
    <glyph glyph-name="space" unicode=" " 
 />
    <glyph glyph-name="exclam" unicode="!" horiz-adv-x="301" 
d="M224 700l-25 -460h-96l-25 460h146zM236 58q0 -36 -24.5 -62t-60.5 -26t-61 26t-25 62t25 61.5t61 25.5t60.5 -25.5t24.5 -61.5z" />
    <glyph glyph-name="quotedbl" unicode="&#x22;" horiz-adv-x="463" 
d="M413 700l-24 -285h-106l-23 285h153zM203 700l-24 -285h-106l-23 285h153z" />
    <glyph glyph-name="numbersign" unicode="#" horiz-adv-x="620" 
d="M585 540l-8 -108h-97v-164h100v-108h-100v-160h-120v160h-100v-160h-120v160h-100v108h100v164h-100v108h100v160h120v-160h100v160h120v-160h105zM360 268v164h-100v-164h100z" />
    <glyph glyph-name="dollar" unicode="$" horiz-adv-x="350" 
d="M325 168q0 -134 -110 -161v-127h-80v119q-24 1 -49.5 6t-39.5 9l-14 5v107q68 -21 95 -21q35 0 51.5 15t16.5 54q0 12 -3 22.5t-9.5 21.5t-11.5 17l-15.5 18.5t-14.5 16.5l-46 56q-70 84 -70 165q0 62 31 104.5t89 57.5v127h80v-121q22 -1 40 -5.5t25 -8.5l8 -4v-102
q-40 19 -85 19q-27 0 -43.5 -15t-16.5 -46q0 -11 2.5 -21t5.5 -17.5t9.5 -17.5t10 -14.5l12.5 -16t12 -14.5l48 -59q22 -27 35 -47t25 -53.5t12 -68.5z" />
    <glyph glyph-name="percent" unicode="%" horiz-adv-x="801" 
d="M776 175q0 -185 -152 -185q-71 0 -111.5 41.5t-40.5 143.5q0 185 152 185t152 -185zM597 710l-280 -720h-113l280 720h113zM329 525q0 -185 -152 -185q-71 0 -111.5 41.5t-40.5 143.5q0 185 152 185t152 -185zM666 175q0 68 -9 92t-33 24q-23 0 -32.5 -26t-9.5 -90
q0 -59 8.5 -86.5t33.5 -27.5q24 0 33 27.5t9 86.5zM219 525q0 68 -9 92t-33 24q-23 0 -32.5 -26t-9.5 -90q0 -59 8.5 -86.5t33.5 -27.5q24 0 33 27.5t9 86.5z" />
    <glyph glyph-name="ampersand" unicode="&#x26;" horiz-adv-x="630" 
d="M620 0l-155 -10l-48 68q-79 -68 -179 -68q-92 0 -150 43.5t-58 142.5q0 43 16 79.5t39 58t46.5 36.5t39.5 21l16 6q-4 2 -10.5 6t-23 18t-29.5 31t-23.5 45.5t-10.5 59.5q0 88 46.5 130.5t130.5 42.5q87 0 130.5 -39t43.5 -122q0 -37 -12 -68.5t-29.5 -50t-34.5 -32
t-29 -18.5l-12 -6l103 -136q23 58 19 188h120q3 -74 -14.5 -150t-53.5 -126zM313 542q0 38 -10 59.5t-38 21.5q-47 0 -47 -86q0 -32 10 -58t20 -36l11 -10q6 4 15 11.5t24 35.5t15 62zM363 134l-133 178q-3 -1 -7.5 -3t-16.5 -12t-21.5 -23t-17 -36.5t-7.5 -52.5
q0 -101 81 -101q75 0 122 50z" />
    <glyph glyph-name="quotesingle" unicode="'" horiz-adv-x="253" 
d="M203 700l-24 -285h-106l-23 285h153z" />
    <glyph glyph-name="parenleft" unicode="(" horiz-adv-x="283" 
d="M293 -150h-118q-6 9 -15.5 25t-34.5 67.5t-44.5 105t-35 131t-15.5 151.5q0 73 15 149.5t36 133.5t42.5 103t36.5 70l15 24h118q-5 -8 -13.5 -23t-29.5 -64t-37 -102t-29.5 -132.5t-13.5 -158.5q0 -125 31 -245t61 -177z" />
    <glyph glyph-name="parenright" unicode=")" horiz-adv-x="283" 
d="M253 330q0 -74 -15 -150.5t-36.5 -133t-42.5 -102.5t-36 -70l-15 -24h-118q5 8 13.5 23t29.5 64.5t37 102t29.5 132t13.5 158.5t-12.5 157.5t-30.5 134.5t-36.5 100t-31.5 66l-12 22h118q6 -9 15.5 -25t34.5 -68t44.5 -105.5t35 -131t15.5 -150.5z" />
    <glyph glyph-name="asterisk" unicode="*" horiz-adv-x="449" 
d="M419 493l-63 -103l-95 85l25 -125h-121l24 125l-97 -85l-62 103l125 47l-125 46l62 103l97 -85l-24 126h121l-25 -126l95 85l63 -103l-127 -46z" />
    <glyph glyph-name="plus" unicode="+" horiz-adv-x="570" 
d="M515 280h-160v-175h-130v175h-170v120h170v165h130v-165h160v-120z" />
    <glyph glyph-name="comma" unicode="," horiz-adv-x="286" 
d="M233 135l-57 -305h-100l17 305h140z" />
    <glyph glyph-name="hyphen" unicode="-" horiz-adv-x="450" 
d="M395 270h-340v115h340v-115z" />
    <glyph glyph-name="period" unicode="." horiz-adv-x="301" 
d="M236 78q0 -36 -24.5 -62t-60.5 -26t-61 26t-25 62t25 61.5t61 25.5t60.5 -25.5t24.5 -61.5z" />
    <glyph glyph-name="slash" unicode="/" horiz-adv-x="272" 
d="M252 710l-120 -720h-112l120 720h112z" />
    <glyph glyph-name="zero" unicode="0" horiz-adv-x="500" 
d="M465 280q0 -88 -18.5 -148t-51.5 -89.5t-67.5 -41t-77.5 -11.5q-215 0 -215 290t215 290q31 0 59 -6.5t57.5 -26t50.5 -50.5t34.5 -84t13.5 -123zM335 280q0 108 -20 154.5t-65 46.5q-46 0 -65.5 -45t-19.5 -156t20 -155t65 -44q44 0 64.5 43.5t20.5 155.5z" />
    <glyph glyph-name="one" unicode="1" horiz-adv-x="320" 
d="M250 0h-130v427l-110 -45v108l140 70h100v-560z" />
    <glyph glyph-name="two" unicode="2" horiz-adv-x="384" 
d="M349 388q0 -21 -2.5 -40t-10 -36.5t-12.5 -30.5t-18.5 -30t-18.5 -24.5t-22.5 -23.5t-21 -19l-22.5 -19l-19 -16l-53 -44h196l-10 -105h-315v107l92 94l55.5 58t33.5 51t18 68q0 46 -16 67.5t-61 21.5q-24 0 -53 -4.5t-47 -9.5l-17 -5v97q55 25 133 25q191 0 191 -182z
" />
    <glyph glyph-name="three" unicode="3" horiz-adv-x="405" 
d="M370 91q0 -117 -91 -171q-85 -50 -259 -54v96q115 7 158 28q62 30 62 107q0 100 -114 100h-52v94h53q50 0 73.5 23t23.5 75q0 43 -18 62t-59 19q-26 0 -57.5 -4t-50.5 -8l-19 -4v94q59 22 128 22q98 0 152 -36.5t54 -129.5q0 -120 -119 -156q135 -26 135 -157z" />
    <glyph glyph-name="four" unicode="4" horiz-adv-x="470" 
d="M465 130l-10 -108h-74v-132l-130 -20v152h-241v100l76 438h148l-93 -430h110l24 240h106v-240h84z" />
    <glyph glyph-name="five" unicode="5" horiz-adv-x="425" 
d="M395 135q0 -153 -115 -218q-86 -48 -232 -52v98q121 10 162 37q55 36 55 128q0 50 -15 73t-56 23q-20 0 -43 -9t-36 -18l-13 -9l-62 22l10 350h325l-13 -109h-192l-8 -149q32 22 84 22q149 0 149 -189z" />
    <glyph glyph-name="six" unicode="6" horiz-adv-x="485" 
d="M455 227q0 -68 -18 -117t-49.5 -74t-66 -35.5t-76.5 -10.5q-47 0 -82 12.5t-65.5 43.5t-46.5 91.5t-16 149.5q0 189 93.5 300.5t274.5 111.5v-97q-102 0 -162 -46t-72 -157q4 5 13 12.5t40 20.5t67 13q73 0 119.5 -50t46.5 -168zM325 223q0 76 -15 103t-56 27
q-22 0 -44 -9.5t-33 -18.5l-11 -9q-1 -27 -1 -46q0 -109 18 -148.5t62 -39.5q41 0 60.5 29t19.5 112z" />
    <glyph glyph-name="seven" unicode="7" horiz-adv-x="370" 
d="M365 461q-99 -120 -131.5 -231.5t-32.5 -319.5l-130 -20q0 205 38.5 330.5t145.5 230.5h-250v109h360v-99z" />
    <glyph glyph-name="eight" unicode="8" horiz-adv-x="506" 
d="M471 177q0 -98 -61.5 -142.5t-156.5 -44.5q-101 0 -159.5 40t-58.5 140q0 39 13 71.5t31.5 50t37.5 29.5t32 16l13 4q-4 1 -11.5 3.5t-26.5 14t-33 27t-26 44.5t-12 65q0 50 17 85.5t47 54t63.5 27t72.5 8.5q52 0 94.5 -14t74 -55t31.5 -105q0 -33 -11.5 -60.5t-28 -43
t-33 -27t-28.5 -15.5l-11 -4q5 -1 14 -3t31.5 -13t39.5 -28t31 -50t14 -75zM323 491q0 46 -14 68.5t-56 22.5q-70 0 -70 -91q0 -70 52 -91l37 -15q2 1 5.5 3.5t12.5 11.5t15.5 20t12 30t5.5 41zM341 179q0 50 -21 70.5t-71 41.5l-27 11q-6 -4 -15.5 -13t-25.5 -40.5
t-16 -69.5q0 -100 88 -100t88 100z" />
    <glyph glyph-name="nine" unicode="9" horiz-adv-x="487" 
d="M452 266q0 -391 -352 -401v99q92 7 153 49t69 127q-40 -30 -108 -30q-32 0 -61.5 10.5t-58.5 34t-46.5 71.5t-17.5 115q0 110 59.5 169.5t153.5 59.5q98 0 153.5 -75t55.5 -229zM325 232q0 68 -3 110t-11 75t-23.5 47t-40.5 14q-47 0 -67 -32t-20 -99q0 -77 20 -110
t58 -33q24 0 45.5 7t31.5 14z" />
    <glyph glyph-name="colon" unicode=":" horiz-adv-x="301" 
d="M236 453q0 -36 -24.5 -62t-60.5 -26t-61 26t-25 62t25 61.5t61 25.5t60.5 -25.5t24.5 -61.5zM236 78q0 -36 -24.5 -62t-60.5 -26t-61 26t-25 62t25 61.5t61 25.5t60.5 -25.5t24.5 -61.5z" />
    <glyph glyph-name="semicolon" unicode=";" horiz-adv-x="306" 
d="M246 453q0 -36 -24.5 -62t-60.5 -26t-61 26t-25 62t25 61.5t61 25.5t60.5 -25.5t24.5 -61.5zM233 135l-57 -305h-100l17 305h140z" />
    <glyph glyph-name="less" unicode="&#x3c;" horiz-adv-x="540" 
d="M485 70l-430 215v100l430 215v-140l-305 -123l305 -127v-140z" />
    <glyph glyph-name="equal" unicode="=" horiz-adv-x="540" 
d="M485 380h-430v120h430v-120zM485 170h-430v120h430v-120z" />
    <glyph glyph-name="greater" unicode="&#x3e;" horiz-adv-x="540" 
d="M485 285l-430 -215v140l305 127l-305 123v140l430 -215v-100z" />
    <glyph glyph-name="question" unicode="?" horiz-adv-x="338" 
d="M318 562q0 -12 -1.5 -23.5t-4.5 -21.5t-6 -18.5t-9 -17.5t-9.5 -15t-11.5 -14.5t-11.5 -12.5t-12 -13l-11.5 -12q-20 -21 -30 -43.5t-10 -63.5q0 -32 7 -67h-114q-5 38 -5 62q0 46 10 81.5t20 50t28 35.5q43 49 43 91q0 26 -12.5 35.5t-37.5 9.5q-18 0 -44.5 -5
t-43.5 -10l-17 -5v101q74 24 137 24q146 0 146 -148zM240 58q0 -36 -24.5 -62t-60.5 -26t-61 26t-25 62t25 61.5t61 25.5t60.5 -25.5t24.5 -61.5z" />
    <glyph glyph-name="at" unicode="@" horiz-adv-x="909" 
d="M874 326q0 -156 -57 -234.5t-141 -78.5q-34 0 -60 12t-38 28.5t-19.5 33.5t-8.5 29l-2 12q-2 -5 -6 -13t-18.5 -28t-32 -35.5t-46 -28.5t-59.5 -13q-61 0 -104.5 44.5t-43.5 141.5q0 135 66.5 218.5t159.5 83.5q29 0 53 -10t33 -20l10 -10l24 32h89l-44 -269
q-8 -50 4 -81t41 -31q44 0 64.5 49.5t20.5 167.5q0 142 -71 215.5t-203 73.5q-153 0 -244 -103.5t-91 -285.5q0 -90 24.5 -156t65.5 -101.5t87 -52t98 -16.5q55 0 108.5 7t79.5 13l26 7v-101q-95 -26 -214 -26q-59 0 -113 12.5t-105.5 44t-88.5 78.5t-60 122t-23 169
q0 116 37.5 210t101 152.5t143.5 90t168 31.5q172 0 280.5 -99.5t108.5 -284.5zM536 384q-21 23 -62 23q-45 0 -81 -60.5t-36 -148.5q0 -93 50 -93q27 0 52 27.5t37 55.5l12 27z" />
    <glyph glyph-name="A" unicode="A" horiz-adv-x="480" 
d="M485 0h-138l-27 146h-160l-27 -146h-138l172 700h146zM304 244l-33 194l-31 193q-18 -125 -30 -193l-34 -194h128z" />
    <glyph glyph-name="B" unicode="B" horiz-adv-x="500" 
d="M465 201q0 -111 -53.5 -156t-169.5 -45h-177v700h177q105 0 154 -42.5t49 -135.5q0 -129 -110 -158q130 -25 130 -163zM315 517q0 55 -20 72.5t-65 17.5h-35v-202h27q52 0 72.5 25t20.5 87zM335 200q0 66 -26 90.5t-87 24.5h-27v-222h44q47 0 71.5 22.5t24.5 84.5z" />
    <glyph glyph-name="C" unicode="C" horiz-adv-x="385" 
d="M375 14q-56 -24 -127 -24q-33 0 -58.5 5.5t-56 26.5t-50.5 57.5t-34 103t-14 157.5q0 92 16 161.5t39.5 108t56.5 62.5t62 31t61 7q28 0 54 -5.5t38 -10.5l13 -6v-104q-55 22 -107 22q-103 0 -103 -266q0 -133 23 -188.5t70 -55.5q24 0 53 6t47 12l17 7v-107z" />
    <glyph glyph-name="D" unicode="D" horiz-adv-x="510" 
d="M475 360q0 -113 -19.5 -187t-58 -110.5t-81.5 -49.5t-104 -13h-147v700h147q46 0 81 -6.5t71 -28t59 -57.5t37.5 -99t14.5 -149zM345 360q0 76 -8 125t-25.5 72.5t-37 31.5t-48.5 8h-31v-493h23q48 0 73 17.5t39.5 74t14.5 164.5z" />
    <glyph glyph-name="E" unicode="E" horiz-adv-x="420" 
d="M400 700l-10 -108h-195v-172h175v-98h-175v-214h200v-108h-330v700h335z" />
    <glyph glyph-name="F" unicode="F" horiz-adv-x="400" 
d="M395 700l-15 -110h-185v-170h175v-98h-175v-322h-130v700h330z" />
    <glyph glyph-name="G" unicode="G" horiz-adv-x="535" 
d="M475 29q-110 -39 -190 -39q-24 0 -39 1t-40.5 5t-42.5 14t-38.5 25.5t-36 42t-27.5 62t-19.5 86.5t-6.5 114q0 91 17.5 160t44 108t64 63t71.5 31.5t73 7.5q40 0 76.5 -8t52.5 -16l16 -8v-104q-67 32 -147 32q-29 0 -52 -11t-43.5 -38.5t-31.5 -82t-11 -134.5
q0 -68 7.5 -116t17.5 -73t27 -38.5t30 -16t33 -2.5q12 0 28.5 2.5t26.5 5.5l10 2v219h-80l-10 97h220v-391z" />
    <glyph glyph-name="H" unicode="H" horiz-adv-x="550" 
d="M485 0h-130v322h-160v-322h-130v700h130v-280h160v280h130v-700z" />
    <glyph glyph-name="I" unicode="I" horiz-adv-x="262" 
d="M197 0h-132v700h132v-700z" />
    <glyph glyph-name="J" unicode="J" horiz-adv-x="305" 
d="M240 125q0 -77 -36.5 -106t-100.5 -29q-26 0 -52 4t-39 8l-12 5v100q57 -13 73 -13q37 0 37 47v559h130v-575z" />
    <glyph glyph-name="K" unicode="K" horiz-adv-x="485" 
d="M485 0l-145 -10l-143 382l130 328h148l-154 -322zM195 0h-130v700h130v-700z" />
    <glyph glyph-name="L" unicode="L" horiz-adv-x="355" 
d="M350 109l-15 -109h-270v700h130v-591h155z" />
    <glyph glyph-name="M" unicode="M" horiz-adv-x="690" 
d="M630 0h-129l-6 291q-1 39 1.5 93t5.5 88l2 35q-37 -104 -64 -162l-95 -208l-99 214q-11 24 -26.5 63.5t-25.5 67.5l-10 27q1 -16 3.5 -41.5t5.5 -86t2 -97.5l-6 -284h-129l24 700h121l140 -345l141 345h120z" />
    <glyph glyph-name="N" unicode="N" horiz-adv-x="540" 
d="M475 0h-117l-98 246q-20 48 -40.5 109t-31.5 97l-11 37q18 -181 18 -250v-239h-130v700h127l97 -247q20 -49 38.5 -108t27.5 -93l9 -34q-19 168 -19 254v228h130v-700z" />
    <glyph glyph-name="O" unicode="O" horiz-adv-x="500" 
d="M470 350q0 -93 -14 -161.5t-34.5 -105.5t-51.5 -59t-58 -28t-62 -6t-62 5.5t-58.5 27t-51.5 59t-34 106t-14 162.5q0 93 13.5 161t34 105.5t52 59.5t58.5 28t62 6q34 0 60.5 -6t58 -28t52.5 -59.5t35 -105.5t14 -161zM340 350q0 150 -21.5 207.5t-68.5 57.5
q-31 0 -49.5 -20.5t-29.5 -80t-11 -164.5q0 -107 13 -168t31 -79t46 -18q27 0 45 17.5t31.5 79t13.5 168.5z" />
    <glyph glyph-name="P" unicode="P" horiz-adv-x="465" 
d="M445 460q0 -126 -62 -182.5t-188 -60.5v-217h-130v700h157q123 0 173 -54.5t50 -185.5zM315 460q0 89 -19.5 115.5t-69.5 26.5h-31v-296q77 6 98.5 39t21.5 115z" />
    <glyph glyph-name="Q" unicode="Q" horiz-adv-x="500" 
d="M470 350q0 -80 -10.5 -142t-27 -100t-40.5 -63.5t-48 -36.5t-53 -15l100 -183h-150l-33 183q-37 5 -66 22t-56 54.5t-41.5 108.5t-14.5 172q0 93 13.5 161.5t34 105.5t52 59t58.5 28t62 6q33 0 60.5 -6.5t58.5 -29t52 -60t35 -105t14 -159.5zM340 350q0 149 -22 207
t-68 58q-31 0 -49.5 -20t-29.5 -79.5t-11 -165.5q0 -109 11.5 -170t29.5 -80.5t49 -19.5q30 0 48.5 19t30 80.5t11.5 170.5z" />
    <glyph glyph-name="R" unicode="R" horiz-adv-x="490" 
d="M465 0h-139l-28 159q-19 105 -50 135l-53 -4v-290h-130v700h177q104 0 158.5 -42.5t54.5 -152.5q0 -136 -106 -185q49 -22 75 -137zM325 505q0 59 -20.5 77.5t-69.5 18.5h-40v-221q76 4 103 27.5t27 97.5z" />
    <glyph glyph-name="S" unicode="S" horiz-adv-x="386" 
d="M361 186q0 -60 -17.5 -100.5t-49 -60.5t-65 -27.5t-76.5 -7.5q-30 0 -60.5 4.5t-46.5 9.5l-16 4v109q74 -20 113 -20q88 0 88 83q0 25 -8.5 45t-19 31t-33.5 32l-58 53q-81 75 -81 175q0 102 58.5 148t139.5 46q34 0 63.5 -5t41.5 -11l13 -5v-106q-55 23 -108 23
q-36 0 -58 -20t-22 -61q0 -34 13.5 -54.5t43.5 -46.5l51 -44q44 -38 69 -82.5t25 -111.5z" />
    <glyph glyph-name="T" unicode="T" horiz-adv-x="390" 
d="M420 700l-15 -110h-130v-590h-130v590h-145v110h420z" />
    <glyph glyph-name="U" unicode="U" horiz-adv-x="516" 
d="M456 180q0 -101 -48.5 -145.5t-149.5 -44.5q-103 0 -150.5 43.5t-47.5 146.5v520h130v-529q0 -41 13.5 -60t54.5 -19q68 0 68 79v529h130v-520z" />
    <glyph glyph-name="V" unicode="V" horiz-adv-x="440" 
d="M450 700l-149 -700h-162l-149 700h145l56 -400l29 -245q18 164 29 245l56 400h145z" />
    <glyph glyph-name="W" unicode="W" horiz-adv-x="746" 
d="M741 700l-109 -700h-170l-57 387l-32 262q-21 -186 -32 -262l-56 -387h-171l-109 700h142l35 -393l18 -252q19 181 29 252l54 393h178l56 -393l28 -252l20 252l34 393h142z" />
    <glyph glyph-name="X" unicode="X" horiz-adv-x="450" 
d="M460 0h-153l-82 268l-83 -268h-152l153 364l-143 336h154l71 -249l71 249h154l-142 -336z" />
    <glyph glyph-name="Y" unicode="Y" horiz-adv-x="450" 
d="M460 700l-170 -412v-288h-130v288l-170 412h150l85 -300l85 300h150z" />
    <glyph glyph-name="Z" unicode="Z" horiz-adv-x="410" 
d="M380 104l-10 -104h-335v96l210 500h-210v104h340v-96l-210 -500h215z" />
    <glyph glyph-name="bracketleft" unicode="[" horiz-adv-x="305" 
d="M315 -150h-250v960h250v-111h-120v-738h120v-111z" />
    <glyph glyph-name="backslash" unicode="\" horiz-adv-x="272" 
d="M252 -10h-112l-120 720h112z" />
    <glyph glyph-name="bracketright" unicode="]" horiz-adv-x="305" 
d="M240 -150h-250v111h120v738h-120v111h250v-960z" />
    <glyph glyph-name="asciicircum" unicode="^" horiz-adv-x="446" 
d="M426 420h-132l-71 234l-71 -234h-132l149 350h108z" />
    <glyph glyph-name="underscore" unicode="_" horiz-adv-x="490" 
d="M490 -210h-490v115h490v-115z" />
    <glyph glyph-name="grave" unicode="`" horiz-adv-x="316" 
d="M296 620h-122l-154 160h158z" />
    <glyph glyph-name="a" unicode="a" horiz-adv-x="460" 
d="M400 0h-107l-20 42q-4 -6 -11.5 -14.5t-33.5 -23t-55 -14.5q-143 0 -143 171q0 53 18 90t47 54t55.5 24t53.5 7h66v50q0 27 -14 39.5t-51 12.5q-22 0 -56 -7.5t-57 -14.5l-22 -8v101q79 31 165 31q165 0 165 -152v-388zM270 111v146l-46 -1q-35 -1 -49.5 -20.5
t-14.5 -71.5q0 -46 11.5 -62.5t33.5 -16.5q14 0 30 6.5t25 12.5z" />
    <glyph glyph-name="b" unicode="b" horiz-adv-x="500" 
d="M465 272q0 -56 -8.5 -100t-21.5 -73t-33 -50.5t-38.5 -32.5t-43.5 -17t-42 -7.5t-40 -1.5q-35 0 -78.5 6t-69.5 12l-25 6v706h130v-217q45 37 105 37q18 0 33 -2.5t36 -10.5t36.5 -26.5t30 -46.5t22 -75t7.5 -107zM335 272q0 73 -10 111.5t-22 46.5t-33 8q-17 0 -35.5 -6
t-28.5 -12l-11 -6v-323q38 -5 56 -5q84 0 84 186z" />
    <glyph glyph-name="c" unicode="c" horiz-adv-x="355" 
d="M345 12q-47 -22 -112 -22q-25 0 -46.5 4t-51 20t-50 43.5t-35.5 80.5t-15 124q0 75 17 129.5t40 82t55.5 43.5t54 19.5t46.5 3.5t49.5 -5.5t36.5 -10.5l11 -6v-103q-53 22 -94 22q-86 0 -86 -175q0 -166 78 -166q21 0 46.5 6t40.5 12l15 5v-107z" />
    <glyph glyph-name="d" unicode="d" horiz-adv-x="510" 
d="M445 0h-103l-16 40q-4 -6 -12.5 -14t-37.5 -22t-61 -14q-24 0 -43.5 3.5t-46.5 19.5t-45.5 43.5t-31.5 81.5t-13 127t15.5 127t37 81.5t52 43.5t51 19.5t44.5 3.5t44 -7.5t28 -14.5l8 -8v210h130v-720zM315 120v299q-26 19 -62 19q-17 0 -27.5 -2.5t-23.5 -12t-20 -27.5
t-12 -51t-5 -80q0 -59 5.5 -96t18 -53t24 -20.5t30.5 -4.5q16 0 34 7.5t28 14.5z" />
    <glyph glyph-name="e" unicode="e" horiz-adv-x="445" 
d="M415 265l-1 -43h-250q0 -76 24 -102t67 -26q20 0 53 5t56 11l23 5v-103q-62 -22 -132 -22q-30 0 -52.5 3t-50 11.5t-46.5 27.5t-36.5 48.5t-26 76.5t-8.5 108q0 81 16 137t45.5 85t62.5 41t76 12q88 0 136 -62t44 -213zM288 304q0 82 -10.5 115t-42.5 33q-38 0 -54 -29.5
t-16 -118.5h123z" />
    <glyph glyph-name="f" unicode="f" horiz-adv-x="310" 
d="M350 615q-52 16 -90 16q-30 0 -42.5 -13t-12.5 -42v-46h100l-15 -91h-85v-439h-130v439h-70v91h70v42q0 158 164 158q30 0 57.5 -4.5t40.5 -9.5l13 -4v-97z" />
    <glyph glyph-name="g" unicode="g" horiz-adv-x="469" 
d="M464 442h-78q27 -38 27 -83q0 -103 -48.5 -144.5t-134.5 -41.5q-14 0 -28.5 2t-21.5 4l-8 2q-18 -14 -18 -31q0 -16 10.5 -23.5t32.5 -9.5l101 -10q82 -8 119.5 -36.5t37.5 -103.5q0 -92 -56.5 -129.5t-180.5 -37.5q-94 0 -141.5 26.5t-47.5 94.5q0 65 66 114
q-46 25 -46 83q0 57 62 93q-65 51 -65 151q0 97 52 137.5t132 40.5q19 0 42.5 -5t35.5 -5h156v-88zM284 362q0 55 -11 74.5t-43 19.5q-29 0 -41.5 -21t-12.5 -73q0 -61 11.5 -83t42.5 -22q33 0 43.5 20.5t10.5 84.5zM329 -48q0 30 -13.5 41t-47.5 14l-92 9q-24 -40 -24 -75
q0 -55 66 -55q56 0 83.5 13.5t27.5 52.5z" />
    <glyph glyph-name="h" unicode="h" horiz-adv-x="525" 
d="M465 0h-130v376q0 29 -8 40.5t-32 11.5q-20 0 -45 -8t-40 -16l-15 -9v-395h-130v720h130v-235q6 6 17.5 15t47.5 24.5t73 15.5q132 0 132 -138v-402z" />
    <glyph glyph-name="i" unicode="i" 
d="M204 680q0 -31 -21.5 -53t-52.5 -22t-52.5 22t-21.5 53t21.5 53t52.5 22t52.5 -22t21.5 -53zM195 0h-130v530h130v-530z" />
    <glyph glyph-name="j" unicode="j" 
d="M204 680q0 -31 -21.5 -53t-52.5 -22t-52.5 22t-21.5 53t21.5 53t52.5 22t52.5 -22t21.5 -53zM195 -61q0 -139 -127 -139q-24 0 -52.5 4t-44.5 8l-16 5v101q51 -12 74 -12q36 0 36 39v585h130v-591z" />
    <glyph glyph-name="k" unicode="k" horiz-adv-x="460" 
d="M460 0l-145 -10l-118 310l94 230h149l-116 -224zM195 0h-130v720h130v-720z" />
    <glyph glyph-name="l" unicode="l" horiz-adv-x="250" 
d="M190 0h-130v720h130v-720z" />
    <glyph glyph-name="m" unicode="m" horiz-adv-x="745" 
d="M685 0h-130v396q0 19 -6 26t-26 7q-16 0 -37 -8t-34 -16l-12 -8v-397h-130v396q0 19 -6 26t-26 7q-16 0 -37 -8t-33 -16l-13 -8v-397h-130v530h102l25 -44q6 6 17 15t43 24t61 15q47 0 73.5 -14t42.5 -48q68 62 129 62q68 0 97.5 -33.5t29.5 -99.5v-407z" />
    <glyph glyph-name="n" unicode="n" horiz-adv-x="525" 
d="M465 0h-130v376q0 29 -8 40.5t-32 11.5q-20 0 -45 -8t-40 -16l-15 -9v-395h-130v530h102l25 -45q7 6 18.5 15t48.5 24.5t74 15.5q132 0 132 -138v-402z" />
    <glyph glyph-name="o" unicode="o" horiz-adv-x="484" 
d="M454 265q0 -82 -17.5 -138.5t-49 -85t-66 -40t-79.5 -11.5t-80 12t-66.5 40.5t-48.5 85t-17 137.5q0 275 212 275t212 -275zM324 265q0 76 -10 117.5t-26.5 54t-45.5 12.5q-43 0 -62.5 -39t-19.5 -145q0 -104 22 -143.5t60 -39.5q25 0 41.5 12.5t28.5 54.5t12 116z" />
    <glyph glyph-name="p" unicode="p" horiz-adv-x="500" 
d="M465 271q0 -75 -14 -129.5t-34 -83t-49 -45t-50.5 -20t-47.5 -3.5q-16 0 -35 3t-29 7l-11 3v-193h-130v720h104l18 -38q5 5 14 13t38.5 21.5t60.5 13.5q34 0 58.5 -8t51 -33t41 -82.5t14.5 -145.5zM335 271q0 72 -8.5 110t-21 48t-35.5 10q-20 0 -38.5 -7.5t-27.5 -15.5
l-9 -8v-313q35 -9 58 -9q16 0 28.5 6t26 24t20.5 57t7 98z" />
    <glyph glyph-name="q" unicode="q" horiz-adv-x="510" 
d="M445 -190h-130v205q-38 -25 -95 -25q-26 0 -46.5 3.5t-48 20t-46 44.5t-31.5 82t-13 128q0 68 13 119.5t32 79.5t45.5 45.5t48.5 22.5t46 5q33 0 59 -12t36 -24l10 -11l20 37h100v-720zM315 107v301q-34 28 -70 28q-41 0 -60.5 -33.5t-19.5 -134.5q0 -77 11 -118
t26.5 -51t42.5 -10q15 0 32.5 4.5t27.5 8.5z" />
    <glyph glyph-name="r" unicode="r" horiz-adv-x="333" 
d="M328 411q-26 10 -60 10q-19 0 -37.5 -7.5t-26.5 -14.5l-9 -7v-392h-130v530h104l18 -55q1 3 2.5 7t9 15.5t17 20t26.5 15.5t37 7q14 0 26.5 -2.5t17.5 -5.5l5 -2v-119z" />
    <glyph glyph-name="s" unicode="s" horiz-adv-x="354" 
d="M329 158q0 -168 -184 -168q-26 0 -54.5 5t-44.5 11l-16 5v106q73 -23 105 -23q68 0 68 57q0 16 -7.5 28t-15.5 17.5t-25 15.5l-36 20q-17 10 -29 18.5t-29 26t-26.5 43t-9.5 57.5q0 84 50.5 123.5t128.5 39.5q27 0 53 -5.5t39 -10.5l13 -6v-101q-50 21 -102 21
q-26 0 -41.5 -14t-15.5 -37q0 -7 1.5 -13l2.5 -10t5.5 -9t6 -7t8.5 -6.5t9 -5.5t11 -6t11 -6l41 -23q83 -46 83 -143z" />
    <glyph glyph-name="t" unicode="t" horiz-adv-x="320" 
d="M315 4q-49 -14 -105 -14q-26 0 -45.5 4t-42 16t-35 40.5t-12.5 72.5v316h-70v91h70l14 120l116 40v-160h100l-15 -91h-85v-302q0 -26 10 -35t31 -9l69 12v-101z" />
    <glyph glyph-name="u" unicode="u" horiz-adv-x="515" 
d="M450 0h-108l-16 41q-6 -6 -16 -14.5t-40.5 -22.5t-59.5 -14q-33 0 -57.5 6.5t-46.5 23t-34 50.5t-12 85v375h130v-375q0 -32 10.5 -43.5t31.5 -11.5q19 0 41 8t35 16l12 8v398h130v-530z" />
    <glyph glyph-name="v" unicode="v" horiz-adv-x="440" 
d="M445 530l-148 -530h-154l-148 530h142l53 -280l30 -187q18 123 30 187l53 280h142z" />
    <glyph glyph-name="w" unicode="w" horiz-adv-x="734" 
d="M719 530l-104 -530h-168l-46 254l-34 223q-22 -148 -35 -222l-46 -255h-167l-104 530h141l28 -267l19 -216q19 145 31 216l47 267h171l48 -267l30 -216q13 146 21 216l29 267h139z" />
    <glyph glyph-name="x" unicode="x" horiz-adv-x="460" 
d="M465 0h-158l-77 202l-77 -202h-158l149 279l-139 251h159l66 -182l66 182h159l-139 -251z" />
    <glyph glyph-name="y" unicode="y" horiz-adv-x="425" 
d="M430 530l-147 -585q-21 -83 -58 -114t-110 -31q-26 0 -52 4.5t-39 9.5l-13 4v100q63 -16 94 -16q25 0 39 10.5t20 36.5l12 49l-181 532h155l77 -377l61 377h142z" />
    <glyph glyph-name="z" unicode="z" horiz-adv-x="403" 
d="M373 102l-6 -102h-332v90l193 338h-193v102h335v-90l-193 -338h196z" />
    <glyph glyph-name="braceleft" unicode="{" horiz-adv-x="303" 
d="M313 -150h-37q-102 0 -152.5 48t-50.5 155v129q0 24 -7.5 43t-18 28t-21.5 15t-18 7l-8 1v110q3 0 8 1.5t17.5 7.5t22 15.5t17.5 27.5t8 42v127q0 107 50.5 155t152.5 48h37v-108h-7q-57 0 -80 -17t-23 -71v-129q0 -123 -107 -155q49 -12 78 -50.5t29 -102.5v-131
q0 -51 25 -69.5t78 -18.5h7v-108z" />
    <glyph glyph-name="bar" unicode="|" 
d="M195 -110h-130v920h130v-920z" />
    <glyph glyph-name="braceright" unicode="}" horiz-adv-x="303" 
d="M303 276q-3 0 -8 -1t-17.5 -7t-22 -15t-17.5 -28t-8 -43v-129q0 -107 -50.5 -155t-152.5 -48h-37v108h7q53 0 78 18.5t25 69.5v131q0 64 29 102.5t78 50.5q-107 32 -107 155v129q0 54 -23 71t-80 17h-7v108h37q102 0 152.5 -48t50.5 -155v-127q0 -37 18 -60.5t36 -28.5
l19 -5v-110z" />
    <glyph glyph-name="asciitilde" unicode="~" horiz-adv-x="630" 
d="M575 285q-67 -43 -138 -43q-45 0 -123 33.5t-107 33.5q-31 0 -69 -11t-60 -22l-23 -11v120q75 44 153 44q51 0 127 -34t104 -34q24 0 58 10.5t56 21.5l22 11v-119z" />
    <glyph glyph-name="exclamdown" unicode="&#xa1;" horiz-adv-x="301" 
d="M236 452q0 -36 -25 -61.5t-61 -25.5t-60.5 25.5t-24.5 61.5t24.5 62t60.5 26t61 -26t25 -62zM223 -190h-146l25 460h96z" />
    <glyph glyph-name="cent" unicode="&#xa2;" horiz-adv-x="365" 
d="M345 12q-32 -15 -80 -20v-102h-80v105q-150 31 -150 267q0 234 150 271v107h80v-101q21 -2 41 -7.5t30 -9.5l9 -5v-103q-53 23 -94 23q-86 0 -86 -175q0 -166 78 -166q21 0 46.5 6t40.5 12l15 5v-107z" />
    <glyph glyph-name="sterling" unicode="&#xa3;" horiz-adv-x="469" 
d="M429 0h-409v106h90v199h-80v101h80v74q0 94 48.5 142t142.5 48q36 0 68 -7t46 -15l14 -7v-99q-60 24 -122 24q-40 0 -54.5 -22t-14.5 -64v-74h146l-15 -101h-131v-199h191v-106z" />
    <glyph glyph-name="currency" unicode="&#xa4;" horiz-adv-x="495" 
d="M475 17q-53 -27 -142 -27q-41 0 -74 7.5t-67.5 28t-58 64t-33.5 108.5h-80l12 98h55q0 5 -0.5 16.5t-0.5 17.5q0 27 1 39h-67l12 98h73q10 63 37.5 106t64.5 62.5t69 27t67 7.5q34 0 67 -6.5t49 -13.5l16 -6v-102q-66 24 -132 24q-44 0 -76 -25.5t-39 -73.5h172l-9 -98
h-175q-1 -12 -1 -39q0 -23 1 -34h184l-9 -98h-165q8 -51 38.5 -77t78.5 -26q28 0 61 6.5t52 12.5l19 6v-103z" />
    <glyph glyph-name="yen" unicode="&#xa5;" horiz-adv-x="450" 
d="M449 660l-116 -267h77v-114h-120v-67h120v-114h-120v-98h-130v98h-120v114h120v67h-120v114h77l-116 267h150l74 -260l74 260h150z" />
    <glyph glyph-name="brokenbar" unicode="&#xa6;" 
d="M195 420h-130v390h130v-390zM195 -110h-130v390h130v-390z" />
    <glyph glyph-name="section" unicode="&#xa7;" horiz-adv-x="440" 
d="M410 290q0 -39 -21 -69t-42 -41l-21 -10q3 -1 7.5 -3.5t15.5 -12.5t20 -22.5t16 -34t7 -46.5q0 -43 -16 -74t-45 -47.5t-63 -24t-75 -7.5q-31 0 -67 6t-57 12l-21 5v104q85 -28 142 -28q74 0 74 50q0 8 -1.5 14.5t-6 12.5l-7 9.5t-10.5 9t-11.5 7.5t-14.5 7.5t-14 7.5
l-37 20q-35 19 -49 27.5t-38.5 28t-34.5 42.5t-10 52q0 22 9 42t21 31.5t24.5 20.5t21.5 13l9 3q-3 1 -7.5 4t-16 14t-20.5 23.5t-16 34.5t-7 46q0 79 54.5 116t144.5 37q36 0 72 -9t55 -17l18 -9v-100q-80 35 -142 35q-74 0 -74 -51q0 -23 17 -37.5t54 -33.5l39 -21l37 -20
t31 -20.5t30.5 -26.5t17 -30t8.5 -40zM291 265q0 7 -1.5 13.5t-6 12l-8 9.5t-11 9t-10 6.5t-11.5 6t-10 5.5l-48 25q-35 -25 -35 -49q0 -6 2 -12t7 -11.5l8.5 -9.5t11.5 -9t11.5 -7.5t13 -7.5l11.5 -6l51 -29q25 25 25 54z" />
    <glyph glyph-name="dieresis" unicode="&#xa8;" horiz-adv-x="367" 
d="M347 690q0 -29 -20 -49.5t-49 -20.5t-49 20.5t-20 49.5t20 49.5t49 20.5t49 -20.5t20 -49.5zM158 690q0 -29 -20 -49.5t-49 -20.5t-49 20.5t-20 49.5t20 49.5t49 20.5t49 -20.5t20 -49.5z" />
    <glyph glyph-name="copyright" unicode="&#xa9;" horiz-adv-x="720" 
d="M685 315q0 -171 -89.5 -268t-235.5 -97q-148 0 -236.5 95t-88.5 270q0 169 91 267t234 98q146 0 235.5 -98t89.5 -267zM582 315q0 133 -58 204t-164 71t-164 -70t-58 -205q0 -136 58 -205.5t164 -69.5q107 0 164.5 69.5t57.5 205.5zM476 139q-44 -21 -95 -21
q-167 0 -167 199q0 60 18.5 102t48.5 61t55.5 26.5t51.5 7.5q23 0 45 -5.5t33 -10.5l10 -6v-76q-51 20 -88 20q-68 0 -68 -119q0 -118 61 -118q16 0 39.5 5t39.5 10l16 5v-80z" />
    <glyph glyph-name="ordfeminine" unicode="&#xaa;" horiz-adv-x="368" 
d="M328 260h-99l-17 30q-31 -39 -73 -39q-23 0 -40.5 4.5t-37.5 17.5t-30.5 43.5t-10.5 76.5q0 44 15 75t39 45.5t46 20t45 5.5h45v36q0 25 -7 34.5t-37 9.5q-19 0 -47 -6.5t-47 -12.5l-19 -6v91q66 25 138 25q137 0 137 -129v-321zM328 0h-308v115h308v-115zM210 357v111
l-29 -1q-22 -1 -32.5 -15t-10.5 -56q0 -61 31 -61q12 0 22 5.5t15 11.5z" />
    <glyph glyph-name="guillemotleft" unicode="&#xab;" horiz-adv-x="470" 
d="M430 70l-190 227v76l190 227v-186l-81 -77l81 -81v-186zM220 70l-190 227v76l190 227v-186l-81 -77l81 -81v-186z" />
    <glyph glyph-name="logicalnot" unicode="&#xac;" horiz-adv-x="610" 
d="M555 99h-120v181h-380v120h500v-301z" />
    <glyph glyph-name="registered" unicode="&#xae;" horiz-adv-x="720" 
d="M685 315q0 -171 -89.5 -268t-235.5 -97q-148 0 -236.5 95t-88.5 270q0 169 91 267t234 98q146 0 235.5 -98t89.5 -267zM582 315q0 133 -58 204t-164 71t-164 -70t-58 -205q0 -136 58 -205.5t164 -69.5q107 0 164.5 69.5t57.5 205.5zM509 137h-103l-13 60q-14 63 -38 84
l-27 -3v-141h-90v370h111q27 0 45.5 -1.5t40 -8t34.5 -18t21.5 -32t8.5 -49.5q0 -37 -18 -59t-55 -38q37 -26 57 -86zM407 398q0 30 -14.5 38.5t-52.5 8.5h-12v-110q50 2 64.5 15t14.5 48z" />
    <glyph glyph-name="macron" unicode="&#xaf;" horiz-adv-x="335" 
d="M315 650h-295v120h295v-120z" />
    <glyph glyph-name="degree" unicode="&#xb0;" horiz-adv-x="394" 
d="M364 535q0 -95 -45 -140t-122 -45q-167 0 -167 185q0 96 46.5 140.5t120.5 44.5q167 0 167 -185zM244 535q0 61 -8.5 84.5t-38.5 23.5q-27 0 -37 -25.5t-10 -82.5t9.5 -81.5t37.5 -24.5q27 0 37 25t10 81z" />
    <glyph glyph-name="plusminus" unicode="&#xb1;" horiz-adv-x="570" 
d="M515 280h-160v-135h-130v135h-170v120h170v165h130v-165h160v-120zM515 -15h-460v115h460v-115z" />
    <glyph glyph-name="twosuperior" unicode="&#xb2;" horiz-adv-x="294" 
d="M267 357l-8 -79h-226v72l81 99q51 62 51 128q0 31 -10.5 44t-32.5 13q-17 0 -38.5 -4.5t-34.5 -9.5l-13 -4v74q38 20 95 20q59 0 95 -31t36 -99q0 -91 -84 -184l-35 -39h124z" />
    <glyph glyph-name="threesuperior" unicode="&#xb3;" horiz-adv-x="294" 
d="M268 405q0 -51 -22.5 -83.5t-52.5 -43t-68 -10.5q-20 0 -43.5 3t-36.5 7l-13 3v74q55 -13 93 -13q22 0 33.5 14t11.5 51t-14 49t-50 12h-43v70h43q29 0 41.5 11.5t12.5 44.5q0 42 -35 42q-17 0 -40 -4t-38 -8l-15 -4v72q46 18 96 18q130 0 130 -107q0 -76 -64 -96
q74 -19 74 -102z" />
    <glyph glyph-name="acute" unicode="&#xb4;" horiz-adv-x="316" 
d="M296 780l-154 -160h-122l118 160h158z" />
    <glyph glyph-name="mu" unicode="&#xb5;" horiz-adv-x="520" 
d="M455 0h-108l-16 41q-6 -6 -17.5 -14.5t-42 -22.5t-56.5 -14l-20 1v-181h-130v720h130v-375q0 -32 10.5 -43.5t31.5 -11.5q19 0 41 8t34 16l13 9v397h130v-530z" />
    <glyph glyph-name="paragraph" unicode="&#xb6;" horiz-adv-x="595" 
d="M530 0h-120v700h120v-700zM345 0h-120v219q-100 0 -150 53t-50 188q0 138 57 189t168 51h95v-700zM225 324v263q-44 0 -57 -24.5t-13 -102.5q0 -76 12.5 -106t57.5 -30z" />
    <glyph glyph-name="periodcentered" unicode="&#xb7;" horiz-adv-x="301" 
d="M236 379q0 -36 -24.5 -62t-60.5 -26t-61 26t-25 62t25 61.5t61 25.5t60.5 -25.5t24.5 -61.5z" />
    <glyph glyph-name="cedilla" unicode="&#xb8;" horiz-adv-x="264" 
d="M244 -90q0 -110 -126 -110q-19 0 -43.5 5t-39.5 9l-15 5v92q56 -18 79 -18q33 0 33 35q0 17 -8.5 37.5t-17.5 32.5l-8 12h78q3 -1 7.5 -3.5t16 -12t20.5 -20t16.5 -28t7.5 -36.5z" />
    <glyph glyph-name="onesuperior" unicode="&#xb9;" horiz-adv-x="294" 
d="M220 278h-98v321l-81 -37v81l106 57h73v-422z" />
    <glyph glyph-name="ordmasculine" unicode="&#xba;" horiz-adv-x="405" 
d="M380 479q0 -69 -14.5 -116t-41 -71t-55.5 -33.5t-66 -9.5t-66.5 10t-56 34t-41 71t-14.5 115q0 126 50 178.5t128 52.5q177 0 177 -231zM380 0h-355v115h355v-115zM261 479q0 91 -12.5 118t-45.5 27q-32 0 -45.5 -30.5t-13.5 -114.5q0 -81 14.5 -112t44.5 -31t44 29
t14 114z" />
    <glyph glyph-name="guillemotright" unicode="&#xbb;" horiz-adv-x="470" 
d="M440 297l-190 -227v186l81 81l-81 77v186l190 -227v-76zM230 297l-190 -227v186l81 81l-81 77v186l190 -227v-76z" />
    <glyph glyph-name="onequarter" unicode="&#xbc;" horiz-adv-x="797" 
d="M794 162l-8 -80h-35v-82h-98v82h-149v67l46 273h109l-56 -260h51l15 140h82v-140h43zM623 810l-365 -920h-84l365 920h84zM220 278h-98v321l-81 -37v81l106 57h73v-422z" />
    <glyph glyph-name="onehalf" unicode="&#xbd;" horiz-adv-x="797" 
d="M770 79l-8 -79h-226v72l81 99q51 62 51 128q0 31 -10.5 44t-32.5 13q-17 0 -38.5 -4.5t-34.5 -9.5l-13 -4v74q38 20 95 20q59 0 95 -31t36 -99q0 -91 -84 -184l-35 -39h124zM623 810l-365 -920h-84l365 920h84zM220 278h-98v321l-81 -37v81l106 57h73v-422z" />
    <glyph glyph-name="threequarters" unicode="&#xbe;" horiz-adv-x="797" 
d="M794 162l-8 -80h-35v-82h-98v82h-149v67l46 273h109l-56 -260h51l15 140h82v-140h43zM623 810l-365 -920h-84l365 920h84zM268 405q0 -51 -22.5 -83.5t-52.5 -43t-68 -10.5q-20 0 -43.5 3t-36.5 7l-13 3v74q55 -13 93 -13q22 0 33.5 14t11.5 51t-14 49t-50 12h-43v70h43
q29 0 41.5 11.5t12.5 44.5q0 42 -35 42q-17 0 -40 -4t-38 -8l-15 -4v72q46 18 96 18q130 0 130 -107q0 -76 -64 -96q74 -19 74 -102z" />
    <glyph glyph-name="questiondown" unicode="&#xbf;" horiz-adv-x="338" 
d="M269 452q0 -36 -25 -61.5t-61 -25.5t-60.5 25.5t-24.5 61.5t24.5 62t60.5 26t61 -26t25 -62zM303 -176q-74 -24 -137 -24q-146 0 -146 148q0 12 1.5 23.5t4.5 21.5t6 18.5t9 17.5t9.5 15t11.5 14.5t11.5 12.5t12 13l11.5 12q20 21 30 43.5t10 63.5q0 32 -7 67h114
q5 -38 5 -62q0 -46 -10 -81.5t-20 -50t-28 -35.5q-43 -49 -43 -91q0 -26 12.5 -35.5t37.5 -9.5q18 0 44.5 5t43.5 10l17 5v-101z" />
    <glyph glyph-name="Agrave" unicode="&#xc0;" horiz-adv-x="480" 
d="M298 750h-122l-154 130h163zM485 0h-138l-27 146h-160l-27 -146h-138l172 700h146zM304 244l-33 194l-31 193q-18 -125 -30 -193l-34 -194h128z" />
    <glyph glyph-name="Aacute" unicode="&#xc1;" horiz-adv-x="480" 
d="M453 880l-154 -130h-122l113 130h163zM485 0h-138l-27 146h-160l-27 -146h-138l172 700h146zM304 244l-33 194l-31 193q-18 -125 -30 -193l-34 -194h128z" />
    <glyph glyph-name="Acircumflex" unicode="&#xc2;" horiz-adv-x="480" 
d="M433 750h-142l-51 58l-51 -58h-142l138 130h110zM485 0h-138l-27 146h-160l-27 -146h-138l172 700h146zM304 244l-33 194l-31 193q-18 -125 -30 -193l-34 -194h128z" />
    <glyph glyph-name="Atilde" unicode="&#xc3;" horiz-adv-x="480" 
d="M400 780q-41 -26 -73 -26q-34 0 -86 18t-78 18q-37 0 -83 -30v110q48 28 87 28q42 0 94 -17t68 -17q29 0 71 25v-109zM485 0h-138l-27 146h-160l-27 -146h-138l172 700h146zM304 244l-33 194l-31 193q-18 -125 -30 -193l-34 -194h128z" />
    <glyph glyph-name="Adieresis" unicode="&#xc4;" horiz-adv-x="480" 
d="M414 820q0 -29 -20 -49.5t-49 -20.5t-49 20.5t-20 49.5t20 49.5t49 20.5t49 -20.5t20 -49.5zM205 820q0 -29 -20 -49.5t-49 -20.5t-49 20.5t-20 49.5t20 49.5t49 20.5t49 -20.5t20 -49.5zM485 0h-138l-27 146h-160l-27 -146h-138l172 700h146zM304 244l-33 194l-31 193
q-18 -125 -30 -193l-34 -194h128z" />
    <glyph glyph-name="Aring" unicode="&#xc5;" horiz-adv-x="480" 
d="M378 818q0 -55 -36.5 -86t-101.5 -31t-101.5 30.5t-36.5 86.5t35.5 86.5t102.5 30.5q63 0 100.5 -31t37.5 -86zM485 0h-138l-27 146h-160l-27 -146h-138l172 700h146zM286 818q0 48 -46 48t-46 -48t46 -48t46 48zM304 244l-33 194l-31 193q-18 -125 -30 -193l-34 -194
h128z" />
    <glyph glyph-name="AE" unicode="&#xc6;" horiz-adv-x="595" 
d="M575 700l-10 -109h-165v-171h155v-98h-155v-213h170v-109h-300v146h-104l-34 -146h-142l208 700h377zM270 244v361l-37 -167l-46 -194h83z" />
    <glyph glyph-name="Ccedilla" unicode="&#xc7;" horiz-adv-x="385" 
d="M375 14q-40 -17 -95 -22q41 -35 41 -82q0 -110 -126 -110q-19 0 -43.5 5t-39.5 9l-15 5v92q56 -18 79 -18q33 0 33 35q0 28 -26 70q-148 41 -148 342q0 92 16 161.5t39.5 108t56.5 62.5t62 31t61 7q28 0 54 -5.5t38 -10.5l13 -6v-104q-55 22 -107 22q-103 0 -103 -266
q0 -133 23 -188.5t70 -55.5q24 0 53 6t47 12l17 7v-107z" />
    <glyph glyph-name="Egrave" unicode="&#xc8;" horiz-adv-x="420" 
d="M306 750h-122l-154 130h163zM400 700l-10 -108h-195v-172h175v-98h-175v-214h200v-108h-330v700h335z" />
    <glyph glyph-name="Eacute" unicode="&#xc9;" horiz-adv-x="420" 
d="M426 880l-154 -130h-122l113 130h163zM400 700l-10 -108h-195v-172h175v-98h-175v-214h200v-108h-330v700h335z" />
    <glyph glyph-name="Ecircumflex" unicode="&#xca;" horiz-adv-x="420" 
d="M416 750h-142l-51 58l-51 -58h-142l138 130h110zM400 700l-10 -108h-195v-172h175v-98h-175v-214h200v-108h-330v700h335z" />
    <glyph glyph-name="Edieresis" unicode="&#xcb;" horiz-adv-x="420" 
d="M407 820q0 -29 -20 -49.5t-49 -20.5t-49 20.5t-20 49.5t20 49.5t49 20.5t49 -20.5t20 -49.5zM198 820q0 -29 -20 -49.5t-49 -20.5t-49 20.5t-20 49.5t20 49.5t49 20.5t49 -20.5t20 -49.5zM400 700l-10 -108h-195v-172h175v-98h-175v-214h200v-108h-330v700h335z" />
    <glyph glyph-name="Igrave" unicode="&#xcc;" horiz-adv-x="262" 
d="M191 750h-122l-154 130h163zM197 0h-132v700h132v-700z" />
    <glyph glyph-name="Iacute" unicode="&#xcd;" horiz-adv-x="262" 
d="M344 880l-154 -130h-122l113 130h163zM197 0h-132v700h132v-700z" />
    <glyph glyph-name="Icircumflex" unicode="&#xce;" horiz-adv-x="262" 
d="M324 750h-142l-51 58l-51 -58h-142l138 130h110zM197 0h-132v700h132v-700z" />
    <glyph glyph-name="Idieresis" unicode="&#xcf;" horiz-adv-x="262" 
d="M295 820q0 -29 -20 -49.5t-49 -20.5t-49 20.5t-20 49.5t20 49.5t49 20.5t49 -20.5t20 -49.5zM106 820q0 -29 -20 -49.5t-49 -20.5t-49 20.5t-20 49.5t20 49.5t49 20.5t49 -20.5t20 -49.5zM197 0h-132v700h132v-700z" />
    <glyph glyph-name="Eth" unicode="&#xd0;" horiz-adv-x="515" 
d="M480 360q0 -113 -19.5 -187t-58 -110.5t-81.5 -49.5t-104 -13h-147v332h-55v88h55v280h147q47 0 81 -5.5t70.5 -26t59 -56t37.5 -99.5t15 -153zM350 360q0 75 -9 124t-26.5 72.5t-36.5 31.5t-47 8h-31v-176h85v-88h-85v-228h23q48 0 73 17.5t39.5 74t14.5 164.5z" />
    <glyph glyph-name="Ntilde" unicode="&#xd1;" horiz-adv-x="540" 
d="M430 780q-41 -26 -73 -26q-34 0 -86 18t-78 18q-37 0 -83 -30v110q48 28 87 28q42 0 94 -17t68 -17q29 0 71 25v-109zM475 0h-117l-98 246q-20 48 -40.5 109t-31.5 97l-11 37q18 -181 18 -250v-239h-130v700h127l97 -247q20 -49 38.5 -108t27.5 -93l9 -34
q-19 168 -19 254v228h130v-700z" />
    <glyph glyph-name="Ograve" unicode="&#xd2;" horiz-adv-x="500" 
d="M316 750h-122l-154 130h163zM470 350q0 -93 -14 -161.5t-34.5 -105.5t-51.5 -59t-58 -28t-62 -6t-62 5.5t-58.5 27t-51.5 59t-34 106t-14 162.5q0 93 13.5 161t34 105.5t52 59.5t58.5 28t62 6q34 0 60.5 -6t58 -28t52.5 -59.5t35 -105.5t14 -161zM340 350
q0 150 -21.5 207.5t-68.5 57.5q-31 0 -49.5 -20.5t-29.5 -80t-11 -164.5q0 -107 13 -168t31 -79t46 -18q27 0 45 17.5t31.5 79t13.5 168.5z" />
    <glyph glyph-name="Oacute" unicode="&#xd3;" horiz-adv-x="500" 
d="M456 880l-154 -130h-122l113 130h163zM470 350q0 -93 -14 -161.5t-34.5 -105.5t-51.5 -59t-58 -28t-62 -6t-62 5.5t-58.5 27t-51.5 59t-34 106t-14 162.5q0 93 13.5 161t34 105.5t52 59.5t58.5 28t62 6q34 0 60.5 -6t58 -28t52.5 -59.5t35 -105.5t14 -161zM340 350
q0 150 -21.5 207.5t-68.5 57.5q-31 0 -49.5 -20.5t-29.5 -80t-11 -164.5q0 -107 13 -168t31 -79t46 -18q27 0 45 17.5t31.5 79t13.5 168.5z" />
    <glyph glyph-name="Ocircumflex" unicode="&#xd4;" horiz-adv-x="500" 
d="M443 750h-142l-51 58l-51 -58h-142l138 130h110zM470 350q0 -93 -14 -161.5t-34.5 -105.5t-51.5 -59t-58 -28t-62 -6t-62 5.5t-58.5 27t-51.5 59t-34 106t-14 162.5q0 93 13.5 161t34 105.5t52 59.5t58.5 28t62 6q34 0 60.5 -6t58 -28t52.5 -59.5t35 -105.5t14 -161z
M340 350q0 150 -21.5 207.5t-68.5 57.5q-31 0 -49.5 -20.5t-29.5 -80t-11 -164.5q0 -107 13 -168t31 -79t46 -18q27 0 45 17.5t31.5 79t13.5 168.5z" />
    <glyph glyph-name="Otilde" unicode="&#xd5;" horiz-adv-x="500" 
d="M410 780q-41 -26 -73 -26q-34 0 -86 18t-78 18q-37 0 -83 -30v110q48 28 87 28q42 0 94 -17t68 -17q29 0 71 25v-109zM470 350q0 -93 -14 -161.5t-34.5 -105.5t-51.5 -59t-58 -28t-62 -6t-62 5.5t-58.5 27t-51.5 59t-34 106t-14 162.5q0 93 13.5 161t34 105.5t52 59.5
t58.5 28t62 6q34 0 60.5 -6t58 -28t52.5 -59.5t35 -105.5t14 -161zM340 350q0 150 -21.5 207.5t-68.5 57.5q-31 0 -49.5 -20.5t-29.5 -80t-11 -164.5q0 -107 13 -168t31 -79t46 -18q27 0 45 17.5t31.5 79t13.5 168.5z" />
    <glyph glyph-name="Odieresis" unicode="&#xd6;" horiz-adv-x="500" 
d="M424 820q0 -29 -20 -49.5t-49 -20.5t-49 20.5t-20 49.5t20 49.5t49 20.5t49 -20.5t20 -49.5zM215 820q0 -29 -20 -49.5t-49 -20.5t-49 20.5t-20 49.5t20 49.5t49 20.5t49 -20.5t20 -49.5zM470 350q0 -93 -14 -161.5t-34.5 -105.5t-51.5 -59t-58 -28t-62 -6t-62 5.5
t-58.5 27t-51.5 59t-34 106t-14 162.5q0 93 13.5 161t34 105.5t52 59.5t58.5 28t62 6q34 0 60.5 -6t58 -28t52.5 -59.5t35 -105.5t14 -161zM340 350q0 150 -21.5 207.5t-68.5 57.5q-31 0 -49.5 -20.5t-29.5 -80t-11 -164.5q0 -107 13 -168t31 -79t46 -18q27 0 45 17.5
t31.5 79t13.5 168.5z" />
    <glyph glyph-name="multiply" unicode="&#xd7;" horiz-adv-x="479" 
d="M449 218l-92 -92l-118 117l-117 -117l-92 92l117 117l-117 117l92 92l117 -117l118 117l92 -92l-118 -117z" />
    <glyph glyph-name="Oslash" unicode="&#xd8;" horiz-adv-x="500" 
d="M470 350q0 -92 -14 -160t-34.5 -105.5t-51.5 -59.5t-58.5 -28.5t-61.5 -6.5q-45 0 -81 12l-37 -112h-72l50 149q-80 82 -80 311q0 93 13.5 161.5t34 105.5t52 59t58.5 28t62 6q45 0 80 -13l38 113h72l-51 -152q81 -83 81 -308zM296 595q-19 20 -46 20q-31 0 -49.5 -20
t-29.5 -79.5t-11 -165.5q0 -89 7 -139zM340 350q0 89 -7 139l-129 -385q16 -19 46 -19q27 0 45 17.5t31.5 79t13.5 168.5z" />
    <glyph glyph-name="Ugrave" unicode="&#xd9;" horiz-adv-x="516" 
d="M326 750h-122l-154 130h163zM456 180q0 -101 -48.5 -145.5t-149.5 -44.5q-103 0 -150.5 43.5t-47.5 146.5v520h130v-529q0 -41 13.5 -60t54.5 -19q68 0 68 79v529h130v-520z" />
    <glyph glyph-name="Uacute" unicode="&#xda;" horiz-adv-x="516" 
d="M456 880l-154 -130h-122l113 130h163zM456 180q0 -101 -48.5 -145.5t-149.5 -44.5q-103 0 -150.5 43.5t-47.5 146.5v520h130v-529q0 -41 13.5 -60t54.5 -19q68 0 68 79v529h130v-520z" />
    <glyph glyph-name="Ucircumflex" unicode="&#xdb;" horiz-adv-x="516" 
d="M451 750h-142l-51 58l-51 -58h-142l138 130h110zM456 180q0 -101 -48.5 -145.5t-149.5 -44.5q-103 0 -150.5 43.5t-47.5 146.5v520h130v-529q0 -41 13.5 -60t54.5 -19q68 0 68 79v529h130v-520z" />
    <glyph glyph-name="Udieresis" unicode="&#xdc;" horiz-adv-x="516" 
d="M432 820q0 -29 -20 -49.5t-49 -20.5t-49 20.5t-20 49.5t20 49.5t49 20.5t49 -20.5t20 -49.5zM223 820q0 -29 -20 -49.5t-49 -20.5t-49 20.5t-20 49.5t20 49.5t49 20.5t49 -20.5t20 -49.5zM456 180q0 -101 -48.5 -145.5t-149.5 -44.5q-103 0 -150.5 43.5t-47.5 146.5v520
h130v-529q0 -41 13.5 -60t54.5 -19q68 0 68 79v529h130v-520z" />
    <glyph glyph-name="Yacute" unicode="&#xdd;" horiz-adv-x="450" 
d="M436 880l-154 -130h-122l113 130h163zM460 700l-170 -412v-288h-130v288l-170 412h150l85 -300l85 300h150z" />
    <glyph glyph-name="Thorn" unicode="&#xde;" horiz-adv-x="465" 
d="M445 360q0 -126 -62 -182.5t-188 -60.5v-117h-130v700h130v-100h27q123 0 173 -54.5t50 -185.5zM315 360q0 89 -19.5 115.5t-69.5 26.5h-31v-296q77 6 98.5 39t21.5 115z" />
    <glyph glyph-name="germandbls" unicode="&#xdf;" horiz-adv-x="524" 
d="M504 147q0 -157 -174 -157q-17 0 -39 3t-35 7l-13 3v104q44 -14 80 -14q53 0 53 56q0 43 -32 71l-33 29q-68 61 -68 125q0 53 35 111q34 56 34 91q0 60 -59 60q-31 0 -47 -20t-16 -71v-545h-130v545q0 92 51 138.5t139 46.5t139.5 -35.5t51.5 -106.5q0 -72 -57 -127
q-39 -37 -39 -63q0 -27 44 -63l37 -30q36 -29 57 -65t21 -93z" />
    <glyph glyph-name="agrave" unicode="&#xe0;" horiz-adv-x="460" 
d="M296 620h-122l-154 160h158zM400 0h-107l-20 42q-4 -6 -11.5 -14.5t-33.5 -23t-55 -14.5q-143 0 -143 171q0 53 18 90t47 54t55.5 24t53.5 7h66v50q0 27 -14 39.5t-51 12.5q-22 0 -56 -7.5t-57 -14.5l-22 -8v101q79 31 165 31q165 0 165 -152v-388zM270 111v146l-46 -1
q-35 -1 -49.5 -20.5t-14.5 -71.5q0 -46 11.5 -62.5t33.5 -16.5q14 0 30 6.5t25 12.5z" />
    <glyph glyph-name="aacute" unicode="&#xe1;" horiz-adv-x="460" 
d="M446 780l-154 -160h-122l118 160h158zM400 0h-107l-20 42q-4 -6 -11.5 -14.5t-33.5 -23t-55 -14.5q-143 0 -143 171q0 53 18 90t47 54t55.5 24t53.5 7h66v50q0 27 -14 39.5t-51 12.5q-22 0 -56 -7.5t-57 -14.5l-22 -8v101q79 31 165 31q165 0 165 -152v-388zM270 111v146
l-46 -1q-35 -1 -49.5 -20.5t-14.5 -71.5q0 -46 11.5 -62.5t33.5 -16.5q14 0 30 6.5t25 12.5z" />
    <glyph glyph-name="acircumflex" unicode="&#xe2;" horiz-adv-x="460" 
d="M423 620h-142l-51 72l-51 -72h-142l138 160h110zM400 0h-107l-20 42q-4 -6 -11.5 -14.5t-33.5 -23t-55 -14.5q-143 0 -143 171q0 53 18 90t47 54t55.5 24t53.5 7h66v50q0 27 -14 39.5t-51 12.5q-22 0 -56 -7.5t-57 -14.5l-22 -8v101q79 31 165 31q165 0 165 -152v-388z
M270 111v146l-46 -1q-35 -1 -49.5 -20.5t-14.5 -71.5q0 -46 11.5 -62.5t33.5 -16.5q14 0 30 6.5t25 12.5z" />
    <glyph glyph-name="atilde" unicode="&#xe3;" horiz-adv-x="460" 
d="M390 650q-41 -26 -73 -26q-36 0 -86 23t-85 23q-30 0 -76 -30v110q48 28 87 28q44 0 94.5 -22t74.5 -22q22 0 64 25v-109zM400 0h-107l-20 42q-4 -6 -11.5 -14.5t-33.5 -23t-55 -14.5q-143 0 -143 171q0 53 18 90t47 54t55.5 24t53.5 7h66v50q0 27 -14 39.5t-51 12.5
q-22 0 -56 -7.5t-57 -14.5l-22 -8v101q79 31 165 31q165 0 165 -152v-388zM270 111v146l-46 -1q-35 -1 -49.5 -20.5t-14.5 -71.5q0 -46 11.5 -62.5t33.5 -16.5q14 0 30 6.5t25 12.5z" />
    <glyph glyph-name="adieresis" unicode="&#xe4;" horiz-adv-x="460" 
d="M394 690q0 -29 -20 -49.5t-49 -20.5t-49 20.5t-20 49.5t20 49.5t49 20.5t49 -20.5t20 -49.5zM205 690q0 -29 -20 -49.5t-49 -20.5t-49 20.5t-20 49.5t20 49.5t49 20.5t49 -20.5t20 -49.5zM400 0h-107l-20 42q-4 -6 -11.5 -14.5t-33.5 -23t-55 -14.5q-143 0 -143 171
q0 53 18 90t47 54t55.5 24t53.5 7h66v50q0 27 -14 39.5t-51 12.5q-22 0 -56 -7.5t-57 -14.5l-22 -8v101q79 31 165 31q165 0 165 -152v-388zM270 111v146l-46 -1q-35 -1 -49.5 -20.5t-14.5 -71.5q0 -46 11.5 -62.5t33.5 -16.5q14 0 30 6.5t25 12.5z" />
    <glyph glyph-name="aring" unicode="&#xe5;" horiz-adv-x="460" 
d="M369 683q0 -56 -35.5 -89t-99.5 -33t-99.5 32.5t-35.5 89.5t34.5 89.5t100.5 32.5q62 0 98.5 -33t36.5 -89zM400 0h-107l-20 42q-4 -6 -11.5 -14.5t-33.5 -23t-55 -14.5q-143 0 -143 171q0 53 18 90t47 54t55.5 24t53.5 7h66v50q0 27 -14 39.5t-51 12.5q-22 0 -56 -7.5
t-57 -14.5l-22 -8v101q79 31 165 31q165 0 165 -152v-388zM277 683q0 51 -43 51t-43 -51t43 -51t43 51zM270 111v146l-46 -1q-35 -1 -49.5 -20.5t-14.5 -71.5q0 -46 11.5 -62.5t33.5 -16.5q14 0 30 6.5t25 12.5z" />
    <glyph glyph-name="ae" unicode="&#xe6;" horiz-adv-x="680" 
d="M650 265l-1 -43h-250q0 -76 24.5 -102t66.5 -26q20 0 53 5t56 11l23 5v-103q-62 -22 -132 -22q-59 0 -100.5 14.5t-69.5 63.5q-58 -78 -137 -78q-24 0 -42 2.5t-40 13t-36.5 28t-24.5 50t-10 77.5q0 53 18 90t47 54t55.5 24t53.5 7h66v50q0 27 -14 39.5t-51 12.5
q-22 0 -56 -7.5t-57 -14.5l-22 -8v101q79 31 165 31q76 0 116 -43q44 43 119 43q88 0 136 -62.5t44 -212.5zM523 304q0 91 -11.5 119.5t-41.5 28.5q-38 0 -54 -29.5t-16 -118.5h123zM270 151v106l-46 -1q-35 -1 -49.5 -20.5t-14.5 -71.5q0 -46 11.5 -62.5t33.5 -16.5
q30 0 47.5 21t17.5 45z" />
    <glyph glyph-name="ccedilla" unicode="&#xe7;" horiz-adv-x="355" 
d="M345 12q-33 -15 -82 -20q41 -35 41 -82q0 -110 -126 -110q-19 0 -43.5 5t-39.5 9l-15 5v92q56 -18 79 -18q33 0 33 35q0 32 -27 72q-130 44 -130 262q0 75 17 129.5t40 82t55.5 43.5t54 19.5t46.5 3.5t49.5 -5.5t36.5 -10.5l11 -6v-103q-53 22 -94 22q-86 0 -86 -175
q0 -166 78 -166q21 0 46.5 6t40.5 12l15 5v-107z" />
    <glyph glyph-name="egrave" unicode="&#xe8;" horiz-adv-x="445" 
d="M296 620h-122l-154 160h158zM415 265l-1 -43h-250q0 -76 24 -102t67 -26q20 0 53 5t56 11l23 5v-103q-62 -22 -132 -22q-30 0 -52.5 3t-50 11.5t-46.5 27.5t-36.5 48.5t-26 76.5t-8.5 108q0 81 16 137t45.5 85t62.5 41t76 12q88 0 136 -62t44 -213zM288 304
q0 82 -10.5 115t-42.5 33q-38 0 -54 -29.5t-16 -118.5h123z" />
    <glyph glyph-name="eacute" unicode="&#xe9;" horiz-adv-x="445" 
d="M436 780l-154 -160h-122l118 160h158zM415 265l-1 -43h-250q0 -76 24 -102t67 -26q20 0 53 5t56 11l23 5v-103q-62 -22 -132 -22q-30 0 -52.5 3t-50 11.5t-46.5 27.5t-36.5 48.5t-26 76.5t-8.5 108q0 81 16 137t45.5 85t62.5 41t76 12q88 0 136 -62t44 -213zM288 304
q0 82 -10.5 115t-42.5 33q-38 0 -54 -29.5t-16 -118.5h123z" />
    <glyph glyph-name="ecircumflex" unicode="&#xea;" horiz-adv-x="445" 
d="M419 620h-142l-51 72l-51 -72h-142l138 160h110zM415 265l-1 -43h-250q0 -76 24 -102t67 -26q20 0 53 5t56 11l23 5v-103q-62 -22 -132 -22q-30 0 -52.5 3t-50 11.5t-46.5 27.5t-36.5 48.5t-26 76.5t-8.5 108q0 81 16 137t45.5 85t62.5 41t76 12q88 0 136 -62t44 -213z
M288 304q0 82 -10.5 115t-42.5 33q-38 0 -54 -29.5t-16 -118.5h123z" />
    <glyph glyph-name="edieresis" unicode="&#xeb;" horiz-adv-x="445" 
d="M389 690q0 -29 -20 -49.5t-49 -20.5t-49 20.5t-20 49.5t20 49.5t49 20.5t49 -20.5t20 -49.5zM200 690q0 -29 -20 -49.5t-49 -20.5t-49 20.5t-20 49.5t20 49.5t49 20.5t49 -20.5t20 -49.5zM415 265l-1 -43h-250q0 -76 24 -102t67 -26q20 0 53 5t56 11l23 5v-103
q-62 -22 -132 -22q-30 0 -52.5 3t-50 11.5t-46.5 27.5t-36.5 48.5t-26 76.5t-8.5 108q0 81 16 137t45.5 85t62.5 41t76 12q88 0 136 -62t44 -213zM288 304q0 82 -10.5 115t-42.5 33q-38 0 -54 -29.5t-16 -118.5h123z" />
    <glyph glyph-name="igrave" unicode="&#xec;" 
d="M189 620h-122l-154 160h158zM195 0h-130v530h130v-530z" />
    <glyph glyph-name="iacute" unicode="&#xed;" 
d="M346 780l-154 -160h-122l118 160h158zM195 0h-130v530h130v-530z" />
    <glyph glyph-name="icircumflex" unicode="&#xee;" 
d="M323 620h-142l-51 72l-51 -72h-142l138 160h110zM195 0h-130v530h130v-530z" />
    <glyph glyph-name="idieresis" unicode="&#xef;" 
d="M294 690q0 -29 -20 -49.5t-49 -20.5t-49 20.5t-20 49.5t20 49.5t49 20.5t49 -20.5t20 -49.5zM105 690q0 -29 -20 -49.5t-49 -20.5t-49 20.5t-20 49.5t20 49.5t49 20.5t49 -20.5t20 -49.5zM195 0h-130v530h130v-530z" />
    <glyph glyph-name="eth" unicode="&#xf0;" horiz-adv-x="490" 
d="M455 290q0 -93 -17.5 -155.5t-50 -92.5t-67 -41t-80.5 -11q-42 0 -74.5 9t-64 32.5t-49 73t-17.5 122.5q0 67 15 115.5t42 74t57 37t66 11.5q34 0 60.5 -10.5t36.5 -20.5l10 -10q-12 75 -48 121l-114 -65v82l56 32q-52 28 -129 28v98q146 0 234 -67l114 65v-82l-62 -35
q82 -107 82 -311zM325 270l-2 69q-28 32 -75 32q-43 0 -63 -30t-20 -108q0 -85 18.5 -117t56.5 -32q45 0 65 39.5t20 146.5z" />
    <glyph glyph-name="ntilde" unicode="&#xf1;" horiz-adv-x="525" 
d="M423 650q-41 -26 -73 -26q-36 0 -86 23t-85 23q-29 0 -76 -30v110q48 28 87 28q44 0 94.5 -22t74.5 -22q22 0 64 25v-109zM465 0h-130v376q0 29 -8 40.5t-32 11.5q-20 0 -45 -8t-40 -16l-15 -9v-395h-130v530h102l25 -45q7 6 18.5 15t48.5 24.5t74 15.5q132 0 132 -138
v-402z" />
    <glyph glyph-name="ograve" unicode="&#xf2;" horiz-adv-x="484" 
d="M296 620h-122l-154 160h158zM454 265q0 -82 -17.5 -138.5t-49 -85t-66 -40t-79.5 -11.5t-80 12t-66.5 40.5t-48.5 85t-17 137.5q0 275 212 275t212 -275zM324 265q0 76 -10 117.5t-26.5 54t-45.5 12.5q-43 0 -62.5 -39t-19.5 -145q0 -104 22 -143.5t60 -39.5
q25 0 41.5 12.5t28.5 54.5t12 116z" />
    <glyph glyph-name="oacute" unicode="&#xf3;" horiz-adv-x="484" 
d="M446 780l-154 -160h-122l118 160h158zM454 265q0 -82 -17.5 -138.5t-49 -85t-66 -40t-79.5 -11.5t-80 12t-66.5 40.5t-48.5 85t-17 137.5q0 275 212 275t212 -275zM324 265q0 76 -10 117.5t-26.5 54t-45.5 12.5q-43 0 -62.5 -39t-19.5 -145q0 -104 22 -143.5t60 -39.5
q25 0 41.5 12.5t28.5 54.5t12 116z" />
    <glyph glyph-name="ocircumflex" unicode="&#xf4;" horiz-adv-x="484" 
d="M435 620h-142l-51 72l-51 -72h-142l138 160h110zM454 265q0 -82 -17.5 -138.5t-49 -85t-66 -40t-79.5 -11.5t-80 12t-66.5 40.5t-48.5 85t-17 137.5q0 275 212 275t212 -275zM324 265q0 76 -10 117.5t-26.5 54t-45.5 12.5q-43 0 -62.5 -39t-19.5 -145q0 -104 22 -143.5
t60 -39.5q25 0 41.5 12.5t28.5 54.5t12 116z" />
    <glyph glyph-name="otilde" unicode="&#xf5;" horiz-adv-x="484" 
d="M402 650q-41 -26 -73 -26q-36 0 -86 23t-85 23q-29 0 -76 -30v110q48 28 87 28q44 0 94.5 -22t74.5 -22q22 0 64 25v-109zM454 265q0 -82 -17.5 -138.5t-49 -85t-66 -40t-79.5 -11.5t-80 12t-66.5 40.5t-48.5 85t-17 137.5q0 275 212 275t212 -275zM324 265
q0 76 -10 117.5t-26.5 54t-45.5 12.5q-43 0 -62.5 -39t-19.5 -145q0 -104 22 -143.5t60 -39.5q25 0 41.5 12.5t28.5 54.5t12 116z" />
    <glyph glyph-name="odieresis" unicode="&#xf6;" horiz-adv-x="484" 
d="M406 690q0 -29 -20 -49.5t-49 -20.5t-49 20.5t-20 49.5t20 49.5t49 20.5t49 -20.5t20 -49.5zM217 690q0 -29 -20 -49.5t-49 -20.5t-49 20.5t-20 49.5t20 49.5t49 20.5t49 -20.5t20 -49.5zM454 265q0 -82 -17.5 -138.5t-49 -85t-66 -40t-79.5 -11.5t-80 12t-66.5 40.5
t-48.5 85t-17 137.5q0 275 212 275t212 -275zM324 265q0 76 -10 117.5t-26.5 54t-45.5 12.5q-43 0 -62.5 -39t-19.5 -145q0 -104 22 -143.5t60 -39.5q25 0 41.5 12.5t28.5 54.5t12 116z" />
    <glyph glyph-name="divide" unicode="&#xf7;" horiz-adv-x="541" 
d="M356 563q0 -36 -24.5 -62t-60.5 -26t-61 26t-25 62t25 61.5t61 25.5t60.5 -25.5t24.5 -61.5zM486 278h-431v115h431v-115zM356 109q0 -36 -24.5 -62t-60.5 -26t-61 26t-25 62t25 61.5t61 25.5t60.5 -25.5t24.5 -61.5z" />
    <glyph glyph-name="oslash" unicode="&#xf8;" horiz-adv-x="484" 
d="M454 265q0 -82 -17.5 -138.5t-49 -85t-66 -40t-79.5 -11.5q-39 0 -68 8l-42 -108h-72l53 137q-83 63 -83 238q0 275 212 275q39 0 68 -8l42 108h72l-53 -137q83 -63 83 -238zM276 444q-12 5 -34 5q-43 0 -62.5 -39t-19.5 -145q0 -58 8 -98zM324 265q0 64 -6 103
l-108 -278q13 -8 32 -8q25 0 41.5 12.5t28.5 54.5t12 116z" />
    <glyph glyph-name="ugrave" unicode="&#xf9;" horiz-adv-x="515" 
d="M336 620h-122l-154 160h158zM450 0h-108l-16 41q-6 -6 -16 -14.5t-40.5 -22.5t-59.5 -14q-33 0 -57.5 6.5t-46.5 23t-34 50.5t-12 85v375h130v-375q0 -32 10.5 -43.5t31.5 -11.5q19 0 41 8t35 16l12 8v398h130v-530z" />
    <glyph glyph-name="uacute" unicode="&#xfa;" horiz-adv-x="515" 
d="M456 780l-154 -160h-122l118 160h158zM450 0h-108l-16 41q-6 -6 -16 -14.5t-40.5 -22.5t-59.5 -14q-33 0 -57.5 6.5t-46.5 23t-34 50.5t-12 85v375h130v-375q0 -32 10.5 -43.5t31.5 -11.5q19 0 41 8t35 16l12 8v398h130v-530z" />
    <glyph glyph-name="ucircumflex" unicode="&#xfb;" horiz-adv-x="515" 
d="M451 620h-142l-51 72l-51 -72h-142l138 160h110zM450 0h-108l-16 41q-6 -6 -16 -14.5t-40.5 -22.5t-59.5 -14q-33 0 -57.5 6.5t-46.5 23t-34 50.5t-12 85v375h130v-375q0 -32 10.5 -43.5t31.5 -11.5q19 0 41 8t35 16l12 8v398h130v-530z" />
    <glyph glyph-name="udieresis" unicode="&#xfc;" horiz-adv-x="515" 
d="M421 690q0 -29 -20 -49.5t-49 -20.5t-49 20.5t-20 49.5t20 49.5t49 20.5t49 -20.5t20 -49.5zM232 690q0 -29 -20 -49.5t-49 -20.5t-49 20.5t-20 49.5t20 49.5t49 20.5t49 -20.5t20 -49.5zM450 0h-108l-16 41q-6 -6 -16 -14.5t-40.5 -22.5t-59.5 -14q-33 0 -57.5 6.5
t-46.5 23t-34 50.5t-12 85v375h130v-375q0 -32 10.5 -43.5t31.5 -11.5q19 0 41 8t35 16l12 8v398h130v-530z" />
    <glyph glyph-name="yacute" unicode="&#xfd;" horiz-adv-x="425" 
d="M426 780l-154 -160h-122l118 160h158zM430 530l-147 -585q-21 -83 -58 -114t-110 -31q-26 0 -52 4.5t-39 9.5l-13 4v100q63 -16 94 -16q25 0 39 10.5t20 36.5l12 49l-181 532h155l77 -377l61 377h142z" />
    <glyph glyph-name="thorn" unicode="&#xfe;" horiz-adv-x="500" 
d="M465 271q0 -75 -14 -129.5t-33 -83t-47.5 -45t-49.5 -20t-46 -3.5q-17 0 -37 4t-32 8l-11 4v-196h-130v910h130v-223q4 5 12.5 12t35.5 19t57 12q34 0 58.5 -8t51 -33t41 -82.5t14.5 -145.5zM335 271q0 72 -8.5 110t-21 48t-35.5 10q-20 0 -38.5 -7.5t-27.5 -15.5l-9 -8
v-313q36 -9 58 -9q16 0 28.5 6t26 24t20.5 57t7 98z" />
    <glyph glyph-name="ydieresis" unicode="&#xff;" horiz-adv-x="425" 
d="M376 690q0 -29 -20 -49.5t-49 -20.5t-49 20.5t-20 49.5t20 49.5t49 20.5t49 -20.5t20 -49.5zM187 690q0 -29 -20 -49.5t-49 -20.5t-49 20.5t-20 49.5t20 49.5t49 20.5t49 -20.5t20 -49.5zM430 530l-147 -585q-21 -83 -58 -114t-110 -31q-26 0 -52 4.5t-39 9.5l-13 4v100
q63 -16 94 -16q25 0 39 10.5t20 36.5l12 49l-181 532h155l77 -377l61 377h142z" />
    <glyph glyph-name="dotlessi" unicode="&#x131;" 
d="M195 0h-130v530h130v-530z" />
    <glyph glyph-name="Lslash" unicode="&#x141;" horiz-adv-x="360" 
d="M355 109l-15 -109h-270v311l-50 -35v98l50 35v291h130v-199l90 64v-98l-90 -64v-294h155z" />
    <glyph glyph-name="lslash" unicode="&#x142;" 
d="M245 439l-50 -35v-404h-130v311l-50 -35v98l50 35v311h130v-218l50 35v-98z" />
    <glyph glyph-name="OE" unicode="&#x152;" horiz-adv-x="600" 
d="M580 700l-10 -109h-165v-171h155v-98h-155v-213h170v-109h-272q-29 -10 -53 -10q-35 0 -62 5.5t-58.5 27t-51.5 59t-34 106t-14 162.5q0 93 13.5 161.5t34 105.5t52 59t58.5 28t62 6q10 0 23 -2.5t21 -5.5l7 -2h279zM275 89v522q-16 4 -25 4q-31 0 -49.5 -20t-29.5 -79.5
t-11 -165.5q0 -107 13 -168t31 -79t46 -18z" />
    <glyph glyph-name="oe" unicode="&#x153;" horiz-adv-x="734" 
d="M704 265l-1 -43h-250q0 -76 24.5 -102t66.5 -26q20 0 53 5t56 11l23 5v-103q-62 -22 -132 -22q-58 0 -93 13.5t-64 46.5q-46 -60 -145 -60q-45 0 -80 12t-66.5 40.5t-48.5 85t-17 137.5q0 275 212 275q98 0 145 -61q40 61 137 61q88 0 136 -62.5t44 -212.5zM577 304
q0 91 -11.5 119.5t-41.5 28.5q-38 0 -54 -29.5t-16 -118.5h123zM324 265q0 78 -9.5 119t-26 53t-46.5 12q-43 0 -62.5 -39t-19.5 -145q0 -104 22 -143.5t60 -39.5q25 0 41.5 12.5t28.5 54.5t12 116z" />
    <glyph glyph-name="Scaron" unicode="&#x160;" horiz-adv-x="386" 
d="M416 880l-138 -130h-110l-138 130h142l51 -62l51 62h142zM361 186q0 -60 -17.5 -100.5t-49 -60.5t-65 -27.5t-76.5 -7.5q-30 0 -60.5 4.5t-46.5 9.5l-16 4v109q74 -20 113 -20q88 0 88 83q0 25 -8.5 45t-19 31t-33.5 32l-58 53q-81 75 -81 175q0 102 58.5 148t139.5 46
q34 0 63.5 -5t41.5 -11l13 -5v-106q-55 23 -108 23q-36 0 -58 -20t-22 -61q0 -34 13.5 -54.5t43.5 -46.5l51 -44q44 -38 69 -82.5t25 -111.5z" />
    <glyph glyph-name="scaron" unicode="&#x161;" horiz-adv-x="354" 
d="M380 780l-138 -160h-110l-138 160h142l51 -72l51 72h142zM329 158q0 -168 -184 -168q-26 0 -54.5 5t-44.5 11l-16 5v106q73 -23 105 -23q68 0 68 57q0 16 -7.5 28t-15.5 17.5t-25 15.5l-36 20q-17 10 -29 18.5t-29 26t-26.5 43t-9.5 57.5q0 84 50.5 123.5t128.5 39.5
q27 0 53 -5.5t39 -10.5l13 -6v-101q-50 21 -102 21q-26 0 -41.5 -14t-15.5 -37q0 -7 1.5 -13l2.5 -10t5.5 -9t6 -7t8.5 -6.5t9 -5.5t11 -6t11 -6l41 -23q83 -46 83 -143z" />
    <glyph glyph-name="Ydieresis" unicode="&#x178;" horiz-adv-x="450" 
d="M399 820q0 -29 -20 -49.5t-49 -20.5t-49 20.5t-20 49.5t20 49.5t49 20.5t49 -20.5t20 -49.5zM190 820q0 -29 -20 -49.5t-49 -20.5t-49 20.5t-20 49.5t20 49.5t49 20.5t49 -20.5t20 -49.5zM460 700l-170 -412v-288h-130v288l-170 412h150l85 -300l85 300h150z" />
    <glyph glyph-name="Zcaron" unicode="&#x17d;" horiz-adv-x="410" 
d="M398 880l-138 -130h-110l-138 130h142l51 -62l51 62h142zM380 104l-10 -104h-335v96l210 500h-210v104h340v-96l-210 -500h215z" />
    <glyph glyph-name="zcaron" unicode="&#x17e;" horiz-adv-x="403" 
d="M395 780l-138 -160h-110l-138 160h142l51 -72l51 72h142zM373 102l-6 -102h-332v90l193 338h-193v102h335v-90l-193 -338h196z" />
    <glyph glyph-name="florin" unicode="&#x192;" horiz-adv-x="360" 
d="M414 642l-18 -95q-53 24 -85 24q-53 0 -64 -55l-9 -46h100l-31 -91h-85l-64 -369q-21 -117 -80 -158.5t-195 -41.5l16 97q63 4 91 28.5t38 79.5l64 364h-70l16 91h70l8 42q16 88 61 123t121 35q29 0 58 -7t44 -14z" />
    <glyph glyph-name="circumflex" unicode="&#x2c6;" horiz-adv-x="426" 
d="M406 620h-142l-51 72l-51 -72h-142l138 160h110z" />
    <glyph glyph-name="caron" unicode="&#x2c7;" horiz-adv-x="426" 
d="M406 780l-138 -160h-110l-138 160h142l51 -72l51 72h142z" />
    <glyph glyph-name="breve" unicode="&#x2d8;" horiz-adv-x="398" 
d="M378 780q0 -180 -179 -180t-179 180h118q0 -49 14.5 -65.5t46.5 -16.5q29 0 45 17.5t16 64.5h118z" />
    <glyph glyph-name="dotaccent" unicode="&#x2d9;" horiz-adv-x="211" 
d="M191 693q0 -36 -24.5 -62t-60.5 -26t-61 26t-25 62t25 61.5t61 25.5t60.5 -25.5t24.5 -61.5z" />
    <glyph glyph-name="ring" unicode="&#x2da;" horiz-adv-x="310" 
d="M290 683q0 -56 -35.5 -89t-99.5 -33t-99.5 32.5t-35.5 89.5t34.5 89.5t100.5 32.5q62 0 98.5 -33t36.5 -89zM198 683q0 51 -43 51t-43 -51t43 -51t43 51z" />
    <glyph glyph-name="ogonek" unicode="&#x2db;" horiz-adv-x="264" 
d="M244 -181q-56 -19 -98 -19q-126 0 -126 110q0 30 17 55t34 35l17 10h78q-34 -44 -34 -82q0 -35 33 -35q10 0 30 4.5t35 8.5l14 5v-92z" />
    <glyph glyph-name="tilde" unicode="&#x2dc;" horiz-adv-x="360" 
d="M340 650q-41 -26 -73 -26q-36 0 -86 23t-85 23q-30 0 -76 -30v110q48 28 87 28q44 0 94.5 -22t74.5 -22q22 0 64 25v-109z" />
    <glyph glyph-name="hungarumlaut" unicode="&#x2dd;" horiz-adv-x="414" 
d="M394 780l-114 -160h-92l68 160h138zM226 780l-114 -160h-92l68 160h138z" />
    <glyph glyph-name="endash" unicode="&#x2013;" horiz-adv-x="550" 
d="M495 270h-440v115h440v-115z" />
    <glyph glyph-name="emdash" unicode="&#x2014;" horiz-adv-x="650" 
d="M595 270h-540v115h540v-115z" />
    <glyph glyph-name="quoteleft" unicode="&#x2018;" horiz-adv-x="261" 
d="M211 730l-16 -305h-155l79 305h92z" />
    <glyph glyph-name="quoteright" unicode="&#x2019;" horiz-adv-x="261" 
d="M221 730l-79 -305h-92l16 305h155z" />
    <glyph glyph-name="quotesinglbase" unicode="&#x201a;" horiz-adv-x="261" 
d="M221 135l-79 -305h-92l16 305h155z" />
    <glyph glyph-name="quotedblleft" unicode="&#x201c;" horiz-adv-x="461" 
d="M411 730l-16 -305h-155l79 305h92zM211 730l-16 -305h-155l79 305h92z" />
    <glyph glyph-name="quotedblright" unicode="&#x201d;" horiz-adv-x="461" 
d="M421 730l-79 -305h-92l16 305h155zM221 730l-79 -305h-92l16 305h155z" />
    <glyph glyph-name="quotedblbase" unicode="&#x201e;" horiz-adv-x="461" 
d="M421 135l-79 -305h-92l16 305h155zM221 135l-79 -305h-92l16 305h155z" />
    <glyph glyph-name="dagger" unicode="&#x2020;" horiz-adv-x="490" 
d="M460 415h-145v-415h-130v415h-155v115h155v190h130v-190h145v-115z" />
    <glyph glyph-name="daggerdbl" unicode="&#x2021;" horiz-adv-x="490" 
d="M460 180h-145v-180h-130v180h-155v115h155v130h-155v115h155v180h130v-180h145v-115h-145v-130h145v-115z" />
    <glyph glyph-name="bullet" unicode="&#x2022;" horiz-adv-x="361" 
d="M296 378q0 -50 -32.5 -83.5t-82.5 -33.5t-83 33t-33 84t33 83.5t83 32.5q49 0 82 -33t33 -83z" />
    <glyph glyph-name="ellipsis" unicode="&#x2026;" horiz-adv-x="843" 
d="M778 78q0 -36 -24.5 -62t-60.5 -26t-61 26t-25 62t25 61.5t61 25.5t60.5 -25.5t24.5 -61.5zM507 78q0 -36 -24.5 -62t-60.5 -26t-61 26t-25 62t25 61.5t61 25.5t60.5 -25.5t24.5 -61.5zM236 78q0 -36 -24.5 -62t-60.5 -26t-61 26t-25 62t25 61.5t61 25.5t60.5 -25.5
t24.5 -61.5z" />
    <glyph glyph-name="perthousand" unicode="&#x2030;" horiz-adv-x="1155" 
d="M1130 175q0 -185 -152 -185q-71 0 -111.5 41.5t-40.5 143.5q0 185 152 185t152 -185zM776 175q0 -185 -152 -185q-71 0 -111.5 41.5t-40.5 143.5q0 185 152 185t152 -185zM597 710l-280 -720h-113l280 720h113zM329 525q0 -185 -152 -185q-71 0 -111.5 41.5t-40.5 143.5
q0 185 152 185t152 -185zM1020 175q0 68 -9 92t-33 24q-23 0 -32.5 -26t-9.5 -90q0 -59 8.5 -86.5t33.5 -27.5q24 0 33 27.5t9 86.5zM666 175q0 68 -9 92t-33 24q-23 0 -32.5 -26t-9.5 -90q0 -59 8.5 -86.5t33.5 -27.5q24 0 33 27.5t9 86.5zM219 525q0 68 -9 92t-33 24
q-23 0 -32.5 -26t-9.5 -90q0 -59 8.5 -86.5t33.5 -27.5q24 0 33 27.5t9 86.5z" />
    <glyph glyph-name="guilsinglleft" unicode="&#x2039;" 
d="M220 70l-190 227v76l190 227v-186l-81 -77l81 -81v-186z" />
    <glyph glyph-name="guilsinglright" unicode="&#x203a;" 
d="M230 297l-190 -227v186l81 81l-81 77v186l190 -227v-76z" />
    <glyph glyph-name="fraction" unicode="&#x2044;" horiz-adv-x="230" 
d="M350 810l-370 -920h-100l370 920h100z" />
    <glyph glyph-name="trademark" unicode="&#x2122;" horiz-adv-x="755" 
d="M705 280h-107l-1 242l-92 -163l-90 159l-3 -238h-109l14 329h-94v-329h-109v329h-94v91h383l102 -178l100 178h84z" />
    <glyph glyph-name="minus" unicode="&#x2212;" horiz-adv-x="510" 
d="M455 270h-400v115h400v-115z" />
    <glyph glyph-name="fi" unicode="&#xfb01;" horiz-adv-x="540" 
d="M475 0h-130v439h-140v-439h-130v439h-70v91h70v42q0 158 164 158q26 0 53.5 -4.5t42.5 -9.5l15 -4v-97q-52 16 -90 16q-30 0 -42.5 -13t-12.5 -42v-46h270v-530z" />
    <glyph glyph-name="fl" unicode="&#xfb02;" horiz-adv-x="535" 
d="M475 0h-130v609q-44 22 -82 22q-58 0 -58 -58v-43h90l-15 -91h-75v-439h-130v439h-70v91h70v39q0 86 47 123.5t120 37.5q30 0 58 -7.5t42 -14.5l13 -8l120 20v-720z" />
    </font>
</defs>
</svg>
